<svg xmlns="http://www.w3.org/2000/svg" viewBox="0 0 725.18 1703.13"><defs><style>.cls-1{fill-rule:evenodd;}</style></defs><title>ecgAsset 7</title><g id="Layer_2" data-name="Layer 2"><g id="Layer_4" data-name="Layer 4"><path class="cls-1" d="M635.66,399.76c31.89-24.05,89.52-48.5,89.52-48.5l-77.56-48.1H541.43V176h34.06l28-32.32L360.57,0,117.66,143.65l28,32.32H193.5V303.16H87.31L9.75,351.26s57.62,24.45,89.51,48.5,48.57,52.79,48.57,52.79H349.62c-123.6,1.61-224.48,80.91-235,181.7h0l-.09-.07-88.34,522s147.65,169.92,211.42,329.93,77.76,211.44,77.76,211.44c0,3,2.85,5.52,6.33,5.52s6.34-2.48,6.34-5.52V1268.21a132,132,0,0,1-99.18-128c0-72.91,59-132,131.8-132s131.8,59.12,131.8,132a132,132,0,0,1-99.34,128V1697.6c0,3,2.85,5.52,6.33,5.52s6.34-2.48,6.34-5.52c0,0,14-51.43,77.75-211.44S695,1156.23,695,1156.23L587.09,452.55S603.77,423.81,635.66,399.76Zm-326.38-172a53.35,53.35,0,1,1,53.35,53.35A53.34,53.34,0,0,1,309.28,227.8ZM416.45,807.39H304.85V641.33h111.6Z"/><path class="cls-1" d="M610.57,634.26h0c-10.52-100.79-111.39-180.09-235-181.7H577.35s16.67-28.74,48.56-52.79,89.52-48.5,89.52-48.5l-77.56-48.1H531.68V176h47.85l28-32.32L364.61,0,121.7,143.65l28,32.32h34.06V303.16H77.56L0,351.26s57.63,24.45,89.52,48.5,48.57,52.79,48.57,52.79L30.23,1156.23s147.64,169.92,211.42,329.93S319.4,1697.6,319.4,1697.6c0,3,2.85,5.53,6.33,5.53s6.33-2.49,6.33-5.53V1268.25a132,132,0,0,1-99.33-128c0-72.92,59-132,131.8-132s131.8,59.11,131.8,132a132,132,0,0,1-99.18,128V1697.6c0,3,2.86,5.53,6.34,5.53s6.33-2.49,6.33-5.53c0,0,14-51.43,77.75-211.44S699,1156.23,699,1156.23l-88.34-522Zm-248-459.81A53.35,53.35,0,1,1,309.2,227.8,53.35,53.35,0,0,1,362.55,174.45Zm57.77,632.94H308.73V641.33H420.32Z"/></g></g></svg>