<svg xmlns="http://www.w3.org/2000/svg" viewBox="0 0 1736.33 527.78"><defs><style>.cls-1{font-size:500px;font-family:Xtra;letter-spacing:0.3em;}.cls-2{letter-spacing:0.26em;}.cls-3{fill-rule:evenodd;}</style></defs><title>ecgAsset 3</title><g id="Layer_2" data-name="Layer 2"><g id="Layer_5" data-name="Layer 5"><text class="cls-1" transform="translate(0 425)">F <tspan class="cls-2" x="592.48" y="0">r</tspan><tspan x="956.84" y="0">ol</tspan></text><circle cx="388.06" cy="113.73" r="3.58"/><path class="cls-3" d="M469.2,131.93c9.31-7,26.14-14.17,26.14-14.17l-22.65-14.05h-31V66.56h9.95l8.18-9.44-70.95-42-71,42,8.17,9.44h14v37.15H309l-22.65,14.05s16.83,7.14,26.14,14.17a58.42,58.42,0,0,1,14.19,15.41h58.94c-36.1.48-65.57,23.64-68.64,53.08h0l0,0-25.8,152.48s43.12,49.63,61.75,96.36S375.64,511,375.64,511a1.87,1.87,0,0,0,3.7,0V385.58a38.48,38.48,0,1,1,19,0V511a1.87,1.87,0,0,0,3.7,0s4.08-15,22.71-61.76,61.75-96.36,61.75-96.36L455,147.34A58.42,58.42,0,0,1,469.2,131.93ZM373.86,81.7a15.59,15.59,0,1,1,15.59,15.58A15.58,15.58,0,0,1,373.86,81.7ZM405.17,251h-32.6v-48.5h32.6Z"/><path class="cls-3" d="M323.86,147.34l-31.5,205.54s43.12,49.63,61.75,96.36S376.82,511,376.82,511a1.87,1.87,0,0,0,3.7,0V385.6a38.51,38.51,0,1,1,19,0V511a1.87,1.87,0,0,0,3.7,0s4.08-15,22.71-61.76,61.75-96.36,61.75-96.36L461.89,200.4l0,0h0c-3.07-29.44-32.54-52.6-68.64-53.08h58.94a58.42,58.42,0,0,1,14.19-15.41c9.31-7,26.14-14.17,26.14-14.17l-22.65-14.05h-31V66.56h14L461,57.12l-71-42-70.95,42,8.17,9.44h9.95v37.15h-31l-22.65,14.05s16.83,7.14,26.15,14.17A58.49,58.49,0,0,1,323.86,147.34Zm65.56-50.06A15.58,15.58,0,1,1,405,81.7,15.59,15.59,0,0,1,389.42,97.28ZM373.71,202.49H406.3V251H373.71Z"/><path d="M892.79,263.89"/><path d="M892.79,265.39a1.5,1.5,0,0,0,0-3,1.5,1.5,0,0,0,0,3Z"/></g></g></svg>